<?xml version="1.0" encoding="utf-8"?>
<!-- Generator: Adobe Illustrator 15.0.2, SVG Export Plug-In . SVG Version: 6.00 Build 0)  -->
<!DOCTYPE svg PUBLIC "-//W3C//DTD SVG 1.1//EN" "http://www.w3.org/Graphics/SVG/1.1/DTD/svg11.dtd">
<svg version="1.1" id="Layer_1" xmlns="http://www.w3.org/2000/svg" xmlns:xlink="http://www.w3.org/1999/xlink" x="0px" y="0px"
	 width="512px" height="512px" viewBox="0 0 512 512" enable-background="new 0 0 512 512" xml:space="preserve">
<g>
	<g>
		<path d="M437.02,74.984C388.671,26.631,324.379,0,256,0C187.622,0,123.339,26.631,74.985,74.984C26.631,123.339,0,187.622,0,256
			c0,68.389,26.631,132.674,74.985,181.024C123.334,485.374,187.622,512,256,512c68.384,0,132.671-26.626,181.02-74.976
			C485.369,388.674,512,324.389,512,256C512,187.622,485.369,123.334,437.02,74.984L437.02,74.984z M425.705,425.711
			C380.379,471.038,320.111,495.999,256,495.999c-64.106,0-124.375-24.961-169.702-70.288C40.966,380.385,16.001,320.111,16.001,256
			c0-64.101,24.965-124.369,70.297-169.702C131.631,40.966,191.899,16.001,256,16.001c64.105,0,124.374,24.965,169.705,70.297
			c45.328,45.327,70.294,105.596,70.294,169.702C495.999,320.115,471.033,380.385,425.705,425.711L425.705,425.711z"/>
		<path d="M430.037,114.971c-2.783-3.434-7.823-3.96-11.256-1.172c-3.432,2.784-3.954,7.822-1.171,11.25
			c29.912,36.87,46.386,83.373,46.386,130.952c0,55.566-21.635,107.802-60.917,147.084S311.561,463.996,256,463.996
			c-51.26,0-100.507-18.804-138.662-52.953c-3.296-2.949-8.35-2.666-11.299,0.625c-2.944,3.291-2.667,8.35,0.625,11.294
			c41.099,36.782,94.131,57.036,149.335,57.036c59.833,0,116.088-23.297,158.393-65.6c42.304-42.305,65.605-98.561,65.605-158.398
			C479.998,204.764,462.254,154.682,430.037,114.971L430.037,114.971z"/>
		<path d="M47.997,256c0-114.692,93.311-208.003,208.003-208.003c51.26,0,100.502,18.809,138.66,52.96
			c3.292,2.949,8.351,2.665,11.295-0.625c2.949-3.291,2.665-8.35-0.625-11.295C364.237,52.256,311.2,32.002,256,32.002
			c-59.829,0-116.078,23.3-158.388,65.609C55.302,139.92,32.002,196.17,32.002,256c0,51.24,17.744,101.327,49.959,141.034
			c1.583,1.952,3.888,2.964,6.216,2.964c1.772,0,3.555-0.586,5.039-1.793c3.428-2.782,3.955-7.82,1.173-11.25
			C64.472,350.086,47.997,303.577,47.997,256L47.997,256z"/>
	</g>
	<g>
		<path d="M323.236,127.656H189.262c-33.97,0-61.606,27.637-61.606,61.607v133.974c0,33.971,27.636,61.607,61.606,61.607h133.975
			c33.97,0,61.604-27.637,61.604-61.607V189.263C384.841,155.293,357.206,127.656,323.236,127.656z M368.621,323.234
			c0,25.025-20.36,45.387-45.385,45.387H189.262c-25.024,0-45.381-20.361-45.381-45.387V189.263
			c0-25.023,20.359-45.381,45.381-45.381h133.975c25.024,0,45.385,20.358,45.385,45.381V323.234z"/>
		<path d="M328.127,174.659c-5.447,0-9.88,4.431-9.88,9.876c0,5.445,4.433,9.875,9.88,9.875c5.445,0,9.875-4.43,9.875-9.875
			C338.002,179.09,333.572,174.659,328.127,174.659z"/>
		<path d="M256.246,193.211c-34.757,0-63.035,28.277-63.035,63.035c0,34.76,28.277,63.04,63.035,63.04
			c34.76,0,63.04-28.28,63.04-63.04C319.286,221.489,291.006,193.211,256.246,193.211z M256.246,303.066
			c-25.814,0-46.816-21.004-46.816-46.82c0-25.81,21.001-46.807,46.816-46.807c25.813,0,46.811,20.998,46.811,46.807
			C303.059,282.063,282.059,303.066,256.246,303.066z"/>
	</g>
</g>
</svg>
